<svg xmlns="http://www.w3.org/2000/svg" width="103.42" height="83.775" viewBox="0 0 103.42 83.775">
  <g id="exam_schedule_graphic" transform="translate(-1277.078 -3197.581)">
    <g id="Group_220" data-name="Group 220" transform="translate(1280.892 3215.573)">
      <rect id="Rectangle_220" data-name="Rectangle 220" width="18.856" height="22.932" transform="translate(0 0)" fill="#d2dcff"/>
      <rect id="Rectangle_221" data-name="Rectangle 221" width="17.128" height="21.483" transform="translate(0.864 0.725)" fill="#d2dcff"/>
      <path id="Path_636" data-name="Path 636" d="M1288.774,3276.285l5.574-5.573,2.782,2.782,5.233-5.233,3.539,3.539v10.179h-17.128Z" transform="translate(-1287.91 -3259.771)" fill="#aec3ff"/>
      <circle id="Ellipse_77" data-name="Ellipse 77" cx="1.494" cy="1.494" r="1.494" transform="translate(4.496 4.828)" fill="#aec3ff"/>
    </g>
    <g id="Group_222" data-name="Group 222" transform="translate(1314.729 3197.581)">
      <rect id="Rectangle_222" data-name="Rectangle 222" width="65.769" height="62.909" rx="7.963" fill="#739dfa"/>
      <rect id="Rectangle_223" data-name="Rectangle 223" width="31.571" height="1.912" rx="0.956" transform="translate(8.383 7.625)" fill="#d2dcff"/>
      <rect id="Rectangle_224" data-name="Rectangle 224" width="22.036" height="1.912" rx="0.956" transform="translate(8.383 11.817)" fill="#d2dcff"/>
      <rect id="Rectangle_225" data-name="Rectangle 225" width="6.665" height="1.365" rx="0.683" transform="translate(8.383 19.796)" fill="#6277d7"/>
      <rect id="Rectangle_226" data-name="Rectangle 226" width="17.745" height="4.124" rx="1.707" transform="translate(33.992 39.444)" fill="#d2dcff"/>
      <rect id="Rectangle_227" data-name="Rectangle 227" width="24.345" height="4.124" rx="1.707" transform="translate(33.084 46.578)" fill="#d2dcff"/>
      <g id="Group_221" data-name="Group 221" transform="translate(8.324 32.742)">
        <path id="Path_637" data-name="Path 637" d="M1457.017,3305.706a1.273,1.273,0,0,1,1.273-1.273,8.986,8.986,0,1,1,8.987-8.986,1.273,1.273,0,1,1,2.546,0,11.533,11.533,0,1,0-11.533,11.533A1.273,1.273,0,0,1,1457.017,3305.706Z" transform="translate(-1446.757 -3283.913)" fill="#d2dcff"/>
        <path id="Path_638" data-name="Path 638" d="M1483.944,3309.567a1.273,1.273,0,0,0-1.273,1.273,9,9,0,0,1-8.987,8.987,1.273,1.273,0,0,0,0,2.547,11.546,11.546,0,0,0,11.533-11.533A1.273,1.273,0,0,0,1483.944,3309.567Z" transform="translate(-1462.152 -3299.308)" fill="#6277d7"/>
      </g>
    </g>
    <g id="Group_232" data-name="Group 232" transform="translate(1277.078 3215.573)">
      <g id="Group_230" data-name="Group 230" transform="translate(20.359 0)">
        <g id="Group_225" data-name="Group 225" transform="translate(0.487 5.897)">
          <path id="Path_655" data-name="Path 655" d="M1364.693,3308.241c5.235.872,11.758-1.076,12.576-2.317,1.9,2.888,2.858,2.8,2.858,2.8v2.167l.428-.428c.132-.3.342-.595.655-.595,1.724,0,1.844,4.794-1.057,5.071-.058.188-.116.364-.177.523v7.674h-6.544v-3.018a4.78,4.78,0,0,1-1.249.19c-2.58,0-6.976-3.793-7.475-9.845C1364.679,3309.318,1364.693,3308.241,1364.693,3308.241Z" transform="translate(-1364.69 -3305.924)" fill="#fcbeb7"/>
        </g>
        <path id="Path_656" data-name="Path 656" d="M1374.966,3291.181c4.513,0,5.415,2.406,5.415,2.406,1.926,0,4.874,3.52,3.1,7.431l-.009.009-1.014,1.014v-2.167s-.962.091-2.858-2.8c-.818,1.241-7.341,3.189-12.576,2.317,0,0-.013,1.077.017,2.219v0C1365.084,3295.96,1369.009,3291.181,1374.966,3291.181Z" transform="translate(-1366.533 -3291.181)" fill="#311643"/>
        <g id="Group_226" data-name="Group 226" transform="translate(10.013 10.688)">
          <path id="Path_657" data-name="Path 657" d="M1383.8,3319.3a.361.361,0,0,0,.361-.361v-.674a.361.361,0,1,0-.722,0v.674A.361.361,0,0,0,1383.8,3319.3Z" transform="translate(-1383.435 -3317.905)" fill="#311643"/>
        </g>
        <g id="Group_227" data-name="Group 227" transform="translate(3.319 10.688)">
          <path id="Path_658" data-name="Path 658" d="M1400.534,3319.3a.361.361,0,0,0,.361-.361v-.674a.361.361,0,1,0-.722,0v.674A.361.361,0,0,0,1400.534,3319.3Z" transform="translate(-1400.173 -3317.905)" fill="#311643"/>
        </g>
        <g id="Group_228" data-name="Group 228" transform="translate(7.256 15.007)">
          <path id="Path_659" data-name="Path 659" d="M1386.827,3330a2.064,2.064,0,0,0,1.349-.463,1.835,1.835,0,0,0,.48-.595.165.165,0,0,0-.3-.136h0a1.687,1.687,0,0,1-1.806.846.166.166,0,0,0-.038.329A2.777,2.777,0,0,0,1386.827,3330Z" transform="translate(-1386.364 -3328.706)" fill="#311643"/>
        </g>
        <circle id="Ellipse_78" data-name="Ellipse 78" cx="1.785" cy="1.785" r="1.785" transform="translate(10.985 11.508)" fill="#f49795"/>
        <path id="Path_660" data-name="Path 660" d="M1401.593,3320.258a12.71,12.71,0,0,0,1.085,3.265,1.785,1.785,0,1,0-1.085-3.265Z" transform="translate(-1400.9 -3308.447)" fill="#f49795"/>
        <g id="Group_229" data-name="Group 229" transform="translate(1.15 7.863)">
          <circle id="Ellipse_79" data-name="Ellipse 79" cx="2.199" cy="2.199" r="2.199" transform="translate(7.025 0.331)" fill="none"/>
          <ellipse id="Ellipse_80" data-name="Ellipse 80" cx="2.199" cy="2.199" rx="2.199" ry="2.199" transform="translate(4.348 5.052) rotate(-170.783)" fill="none"/>
          <path id="Path_661" data-name="Path 661" d="M1380.542,3310.843a2.533,2.533,0,0,1,2.515,2.259,1.942,1.942,0,0,1,1.664,0,2.532,2.532,0,1,1-.012.366,1.65,1.65,0,0,0-1.639,0,2.529,2.529,0,1,1-2.527-2.625Zm6.694,4.729a2.2,2.2,0,1,0-2.2-2.2A2.2,2.2,0,0,0,1387.236,3315.571Zm-6.694,0a2.2,2.2,0,1,0-2.2-2.2A2.2,2.2,0,0,0,1380.542,3315.571Z" transform="translate(-1378.012 -3310.843)" fill="#fff"/>
        </g>
        <path id="Path_662" data-name="Path 662" d="M1376.118,3340.9v-3.018a14.575,14.575,0,0,0,4.43-2.353Z" transform="translate(-1366.888 -3317.791)" fill="#f9afab"/>
      </g>
      <path id="Path_668" data-name="Path 668" d="M1374.457,3450.145l-26,1.468.253-2.7h25.6" transform="translate(-1329.376 -3385.831)" fill="#4a5ea3"/>
      <path id="Path_669" data-name="Path 669" d="M1351.861,3381.206" transform="translate(-1308.14 -3345.202)" fill="#fcbeb7"/>
      <line id="Line_4" data-name="Line 4" x1="5.908" y2="4.542" transform="translate(45.05 32.786)" fill="#fcbeb7"/>
      <path id="Path_670" data-name="Path 670" d="M1340.689,3360.367l-1.7,24.777h25.6l-1.569-17.656.348-9.421,1.329,1.325,5.908-4.542-3.175-5.173a7.866,7.866,0,0,0-3.271-2.964l-7.282-3.534-.266-.129-.831-.4s-3.8,2.494-6.532,0l-1.459.55-.3.111-7.718,2.909a4.965,4.965,0,0,0-2.742,2.534l-3.274,6.963Z" transform="translate(-1319.654 -3322.063)" fill="#fe9ecc"/>
      <g id="Group_231" data-name="Group 231" transform="translate(27.845 20.986)">
        <path id="Path_671" data-name="Path 671" d="M1368.387,3343.8a7.476,7.476,0,0,0,8.822-.146l.266.129a7.741,7.741,0,0,1-9.386.129Z" transform="translate(-1368.09 -3343.655)" fill="#fff"/>
      </g>
      <path id="Path_672" data-name="Path 672" d="M1341.767,3353.981a2.2,2.2,0,0,0,2.927,2.078,7.862,7.862,0,0,0-2.836-2.708A2.2,2.2,0,0,0,1341.767,3353.981Z" transform="translate(-1296.937 -3328.488)" fill="#4a62d3"/>
      <rect id="Rectangle_233" data-name="Rectangle 233" width="27.386" height="0.542" rx="0.271" transform="translate(57.811 59.623) rotate(-164.073)" fill="#4a5ea3"/>
      <rect id="Rectangle_234" data-name="Rectangle 234" width="6.272" height="11.14" rx="0.843" transform="translate(24.389 26.569)" fill="#4a5ea3"/>
      <path id="Path_673" data-name="Path 673" d="M1380.63,3377.754l4.667-11.031,3.561,2.381,5-4.384,1.023-3.506a.249.249,0,0,1,.214-.214.76.76,0,0,1,.855.839l-.176,1.536,1.856.246a3.457,3.457,0,0,0,1.492-.129l1.727-.543a.972.972,0,0,1,1.224.652h0l.667-.154a.616.616,0,0,1,.736.446l0,.017a.616.616,0,0,1-.311.7h0a1,1,0,0,1-.71,1.219l-.015,0h0a1.136,1.136,0,0,1-.626,1.326l-1.307.6a3.342,3.342,0,0,1-1.569.3l-2.969-.242-10.082,13.177,0,0h0a3.123,3.123,0,0,1-3.715.821h0A3.123,3.123,0,0,1,1380.63,3377.754Z" transform="translate(-1371.185 -3333.073)" fill="#fcbeb7"/>
      <path id="Path_674" data-name="Path 674" d="M1410.663,3354.293a2.13,2.13,0,0,0,2.78-2.681,4.964,4.964,0,0,0-2.7,2.519Z" transform="translate(-1393.355 -3327.444)" fill="#4a62d3"/>
      <path id="Path_675" data-name="Path 675" d="M1425.21,3382.669l-5.4,2.918-1.221,2.887Z" transform="translate(-1408.174 -3346.08)" fill="#f9afab"/>
      <path id="Path_676" data-name="Path 676" d="M1329.652,3429.09l7.648-13.327-1.618-.462Z" transform="translate(-1284.697 -3365.662)" fill="#2f3d6c"/>
      <circle id="Ellipse_83" data-name="Ellipse 83" cx="2.099" cy="2.099" r="2.099" transform="translate(10.412 44.065)" fill="#f9afab"/>
      <path id="Path_677" data-name="Path 677" d="M1324.121,3388.468a2.226,2.226,0,0,0,1.8,2.185l.375-.871a3.026,3.026,0,0,0-.156-2.7l-.427-.744A2.227,2.227,0,0,0,1324.121,3388.468Z" transform="translate(-1271.726 -3348.28)" fill="#f9afab"/>
      <path id="Path_678" data-name="Path 678" d="M1324.709,3401.389l2.6-1.163a.728.728,0,0,0,.387-.417l.377-1.039-1.316.323-.42.9a.619.619,0,0,1-.806.307l.548-1.655a1.132,1.132,0,0,1,.554-.6l2.75-1.352,4.743-15.385-3.624-3.605,5.908-4.542,3.455,6.012a3.027,3.027,0,0,1,.156,2.7l-9.588,21.926-1.9.088a.623.623,0,0,1-.563-.3l-.207-.346-1,.082a.622.622,0,0,1-.551-.25l-.236-.318-.14.037a.858.858,0,0,1-.974-.424l-.7.232A.993.993,0,0,1,1324.709,3401.389Z" transform="translate(-1285.458 -3340.374)" fill="#fcbeb7"/>
      <path id="Path_679" data-name="Path 679" d="M1461.184,3381.206" transform="translate(-1461.184 -3345.202)" fill="#fcbeb7"/>
    </g>
  </g>
</svg>
