<svg xmlns="http://www.w3.org/2000/svg" width="101" height="89.149" viewBox="0 0 101 89.149">
  <g id="as_registration_graphic" transform="translate(0)">
    <g id="Group_162" data-name="Group 162" transform="translate(29.062)">
      <rect id="Rectangle_166" data-name="Rectangle 166" width="51.717" height="41.047" rx="6.312" fill="#d2dcff"/>
      <path id="Rectangle_167" data-name="Rectangle 167" d="M0,0H51.717a0,0,0,0,1,0,0V12.486A6.312,6.312,0,0,1,45.4,18.8H6.312A6.312,6.312,0,0,1,0,12.486V0A0,0,0,0,1,0,0Z" transform="translate(0 33.872)" fill="#6277d7"/>
      <rect id="Rectangle_168" data-name="Rectangle 168" width="27.384" height="1.539" rx="0.769" transform="translate(7.892 39.508)" fill="#d2dcff"/>
      <rect id="Rectangle_169" data-name="Rectangle 169" width="15.193" height="1.539" rx="0.769" transform="translate(7.892 43.705)" fill="#d2dcff"/>
      <rect id="Rectangle_170" data-name="Rectangle 170" width="15.193" height="1.539" rx="0.769" transform="translate(27.679 15.974)" fill="#6277d7"/>
      <rect id="Rectangle_171" data-name="Rectangle 171" width="8.429" height="1.539" rx="0.769" transform="translate(27.679 20.171)" fill="#6277d7"/>
      <g id="Group_161" data-name="Group 161" transform="translate(7.682 9.352)">
        <circle id="Ellipse_59" data-name="Ellipse 59" cx="6.741" cy="6.741" r="6.741" transform="translate(1.91 1.91)" fill="none"/>
        <path id="Path_470" data-name="Path 470" d="M631.785,3231.822a.955.955,0,0,1,.955-.955,6.741,6.741,0,1,1,6.741-6.741.955.955,0,1,1,1.91,0,8.651,8.651,0,1,0-8.651,8.651A.955.955,0,0,1,631.785,3231.822Z" transform="translate(-624.089 -3215.475)" fill="#89aeff"/>
        <path id="Path_471" data-name="Path 471" d="M649.812,3232.547a.955.955,0,0,0-.955.955,6.749,6.749,0,0,1-6.741,6.741.955.955,0,1,0,0,1.91,8.661,8.661,0,0,0,8.651-8.651A.955.955,0,0,0,649.812,3232.547Z" transform="translate(-633.465 -3224.851)" fill="#6277d7"/>
      </g>
    </g>
    <g id="Group_163" data-name="Group 163" transform="translate(70.213 39.656)">
      <path id="Path_472" data-name="Path 472" d="M747.02,3269.445v17.29a1.7,1.7,0,0,0,1.7,1.7H776.11a1.7,1.7,0,0,0,1.7-1.7v-17.29Z" transform="translate(-747.02 -3262.405)" fill="#89aeff"/>
      <path id="Path_473" data-name="Path 473" d="M751.461,3253.83h24.753c1.021,0,1.848,1.352,1.848,3.02V3271.7c0,1.668-.827,3.02-1.848,3.02H751.461c-1.021,0-1.848-1.352-1.848-3.02V3256.85C749.613,3255.182,750.44,3253.83,751.461,3253.83Z" transform="translate(-748.444 -3253.83)" fill="#d2dcff"/>
      <path id="Path_474" data-name="Path 474" d="M776.11,3288.431H748.717a1.7,1.7,0,0,1-1.7-1.7v-17.29l15.394,11.266,15.393-11.266v17.29A1.7,1.7,0,0,1,776.11,3288.431Z" transform="translate(-747.02 -3262.405)" fill="#6277d7"/>
      <rect id="Rectangle_172" data-name="Rectangle 172" width="15.074" height="1.539" rx="0.769" transform="translate(7.857 4.904)" fill="#89aeff"/>
      <rect id="Rectangle_173" data-name="Rectangle 173" width="8.363" height="1.539" rx="0.769" transform="translate(11.212 8.331)" fill="#89aeff"/>
    </g>
    <g id="Group_2025" data-name="Group 2025" transform="translate(0 26.913)">
      <g id="Group_251" data-name="Group 251" transform="translate(9.175)">
        <path id="Path_720" data-name="Path 720" d="M1554.543,4010.515l.074,13.021-6.637.038-6.106.035-.421,0-8.268.047-.09-15.811c-.036-6.252,4.989-7.369,4.989-7.369s1.813-2.948,7.136-2.978c6.405-.037,10.7,3.863,10.726,8.706A6.74,6.74,0,0,1,1554.543,4010.515Zm-.12-2.16c-.811-.178-3.1-2.172-3.111-4.229-1.765,2.958-7.189,7.233-15.305,4.689h0a.438.438,0,0,0-.076-.007c-1.927.012-2.031,5.372,1.213,5.664.049.157.1.306.15.445l.049,8.716,7.315-.042-.02-3.388a5.405,5.405,0,0,0,1.448.218C1549.111,4020.406,1554.345,4015.708,1554.423,4008.355Z" transform="translate(-1531.612 -3997.501)" fill="#311643"/>
        <path id="Path_721" data-name="Path 721" d="M1549.506,4028.742l0-.467a5.423,5.423,0,0,0,1.448.218c3.025-.018,8.259-4.715,8.337-12.068-.811-.178-3.1-2.172-3.111-4.229-1.765,2.958-7.189,7.233-15.3,4.689h0a.563.563,0,0,0-.077-.006c-1.927.012-2.031,5.372,1.214,5.663.049.157.1.306.15.445l.033,5.863-5.714,2.733.041,7.071,19.038-.109-.04-7.138-6.01-2.667Z" transform="translate(-1536.477 -4005.572)" fill="#fcbeb7"/>
        <path id="Path_722" data-name="Path 722" d="M1555.859,4054.861l-.04-7.139-6.01-2.667,0-.467a16.572,16.572,0,0,1-5.052-2.689Z" transform="translate(-1536.78 -4021.884)" fill="#f9afab"/>
        <circle id="Ellipse_88" data-name="Ellipse 88" cx="1.996" cy="1.996" r="1.996" transform="translate(7.08 13.149)" fill="#f49795"/>
        <path id="Path_723" data-name="Path 723" d="M1540.113,4026.844a14.227,14.227,0,0,1-1.192,3.657,2,2,0,1,1,1.192-3.657Z" transform="translate(-1517.544 -4013.433)" fill="#f49795"/>
        <g id="Group_246" data-name="Group 246" transform="translate(8.481 8.626)">
          <ellipse id="Ellipse_89" data-name="Ellipse 89" cx="2.458" cy="2.458" rx="2.458" ry="2.458" transform="matrix(-0.388, -0.922, 0.922, -0.388, 9.39, 6.438)" fill="none"/>
          <ellipse id="Ellipse_90" data-name="Ellipse 90" cx="2.458" cy="2.458" rx="2.458" ry="2.458" transform="matrix(-0.388, -0.922, 0.922, -0.388, 1.907, 6.481)" fill="none"/>
          <path id="Path_724" data-name="Path 724" d="M1551.388,4020.315a2.828,2.828,0,0,1-5.653.139,1.829,1.829,0,0,0-1.833.007,2.823,2.823,0,1,1-.016-.408,2.173,2.173,0,0,1,1.86-.009,2.828,2.828,0,0,1,5.641.271Zm-7.853.045a2.458,2.458,0,1,0-2.445,2.472A2.46,2.46,0,0,0,1543.535,4020.36Zm7.483-.043a2.458,2.458,0,1,0-2.444,2.472A2.461,2.461,0,0,0,1551.018,4020.317Z" transform="translate(-1537.858 -4017.112)" fill="#fff"/>
        </g>
        <g id="Group_249" data-name="Group 249" transform="translate(11.424 12.31)">
          <g id="Group_247" data-name="Group 247" transform="translate(7.363)">
            <path id="Path_725" data-name="Path 725" d="M1544.012,4026.369a.4.4,0,0,1-.406-.4l0-.754a.4.4,0,1,1,.807,0l0,.753A.4.4,0,0,1,1544.012,4026.369Z" transform="translate(-1543.602 -4024.808)" fill="#311643"/>
          </g>
          <g id="Group_248" data-name="Group 248" transform="translate(0 0.042)">
            <path id="Path_726" data-name="Path 726" d="M1560.344,4026.463a.4.4,0,0,1-.406-.4l0-.754a.4.4,0,0,1,.807,0l0,.753A.4.4,0,0,1,1560.344,4026.463Z" transform="translate(-1559.934 -4024.902)" fill="#311643"/>
          </g>
        </g>
        <g id="Group_250" data-name="Group 250" transform="translate(12.674 17.04)">
          <path id="Path_727" data-name="Path 727" d="M1555.3,4036.732a2.308,2.308,0,0,1-1.511-.509,2.051,2.051,0,0,1-.54-.662.185.185,0,0,1,.336-.155h0a1.886,1.886,0,0,0,2.024.936.185.185,0,1,1,.045.367A3.019,3.019,0,0,1,1555.3,4036.732Z" transform="translate(-1553.23 -4035.299)" fill="#311643"/>
        </g>
      </g>
      <g id="Group_252" data-name="Group 252" transform="translate(0 24.053)">
        <path id="Path_733" data-name="Path 733" d="M1560.871,4059.718c1.389-.008,2.493-1.353,3.234-2.711l-7.923.045C1557.4,4058.4,1559.061,4059.728,1560.871,4059.718Z" transform="translate(-1541.003 -4054.233)" fill="#fff"/>
        <path id="Path_734" data-name="Path 734" d="M1562.715,4057.34a9.52,9.52,0,0,0-4.645-4.4l-4.713-2.082a9.9,9.9,0,0,1-1.068,2.773c-.741,1.358-1.845,2.7-3.235,2.711-1.81.01-3.473-1.322-4.688-2.667a17.087,17.087,0,0,1-2.008-2.742l-5.441,2.558a8.128,8.128,0,0,0-4.44,5.439l-3.115,12.84a6.219,6.219,0,0,0,1.616,5.835h0c2.506-.895,7.209-2.756,7.209-2.756l.669,8.782,20.611-.118,4.991-22.735Z" transform="translate(-1529.186 -4050.855)" fill="#fe9ecc"/>
      </g>
      <g id="Group_253" data-name="Group 253" transform="translate(11.46 24.632)">
        <path id="Path_735" data-name="Path 735" d="M1558.819,4058.972a6.758,6.758,0,0,1-3.472-1.017,12.388,12.388,0,0,1-2.719-2.243,18.686,18.686,0,0,1-2.43-3.27l.305-.143a18.228,18.228,0,0,0,2.376,3.189,12.013,12.013,0,0,0,2.642,2.179,6.431,6.431,0,0,0,3.3.968,4.133,4.133,0,0,0,2.732-1.03,6.9,6.9,0,0,0,1.661-2.274,12,12,0,0,0,1.01-3.19l.318.14a11.588,11.588,0,0,1-1.021,3.188,7.226,7.226,0,0,1-1.745,2.389A4.456,4.456,0,0,1,1558.819,4058.972Z" transform="translate(-1550.197 -4052.141)" fill="#fff"/>
      </g>
      <path id="Path_736" data-name="Path 736" d="M1593.985,4058.643a2.392,2.392,0,0,1-3.8,1.949,8.123,8.123,0,0,1,3.309-3.386A2.38,2.38,0,0,1,1593.985,4058.643Z" transform="translate(-1586.213 -4030.29)" fill="#ff78ba"/>
      <path id="Path_737" data-name="Path 737" d="M1505.225,4098.063l15.858-.689a1.949,1.949,0,0,0,1.786-1.4l6.8-23.156a.748.748,0,0,0-.75-.958l-16.037.7a1.7,1.7,0,0,0-1.556,1.218l-6.854,23.328A.748.748,0,0,0,1505.225,4098.063Z" transform="translate(-1483.277 -4038.338)" fill="#4a5ea3"/>
      <path id="Path_738" data-name="Path 738" d="M1513.757,4102.834l2.791,2.761.465-1.581Z" transform="translate(-1474.785 -4055.349)" fill="#2f3d6c"/>
      <path id="Path_739" data-name="Path 739" d="M1513.5,4093.251l-4,.287a.558.558,0,0,0-.518.564h0l-.4.027a.536.536,0,0,0-.5.475l-.047.416h0a.536.536,0,0,0-.525.546h0a.534.534,0,0,0,.341.489l.9.351h0a1.168,1.168,0,0,0,.683,1.059l2.79,1.27a2.361,2.361,0,0,0,1.3.191h0a2.362,2.362,0,0,0,1.994-1.86l.169-.811a2.618,2.618,0,0,0-.731-2.4h0A2.1,2.1,0,0,0,1513.5,4093.251Z" transform="translate(-1470.694 -4050.086)" fill="#fcbeb7"/>
      <path id="Path_740" data-name="Path 740" d="M1547.544,4058.047l2.767,6.655a3.017,3.017,0,0,0,.663.99l.488.481a.153.153,0,0,0,.271-.112l0-.686a3.008,3.008,0,0,0-.234-1.167l-2.767-6.654a.731.731,0,0,0-.9-.486h0A.731.731,0,0,0,1547.544,4058.047Z" transform="translate(-1524.707 -4030.191)" fill="#6277d7"/>
      <path id="Path_741" data-name="Path 741" d="M1574.117,4064.73l-1.51-2.055a1.138,1.138,0,0,0-.822-.46l-2.513-.213a1.258,1.258,0,0,0-.94.31l-1.3,1.144a2.27,2.27,0,0,0-.471.578l-1.591,2.557-15.154,12.387a3.278,3.278,0,0,0-.259,4.84h0a3.278,3.278,0,0,0,4.825-.172l12.771-14.943,2.695-1.678,2,.057a.959.959,0,0,0,.967-.761l.109-.13a.959.959,0,0,0,.2-.811l-.117-.562.647.413a.348.348,0,0,0,.468-.5Z" transform="translate(-1547.669 -4032.922)" fill="#fcbeb7"/>
      <path id="Path_742" data-name="Path 742" d="M1575.05,4096.1l5.6-6.548-5.365,9.585Z" transform="translate(-1566.049 -4048.054)" fill="#ff78ba"/>
      <path id="Path_743" data-name="Path 743" d="M1538.051,4129.517l9.327,2.513-.521-2.895Z" transform="translate(-1516.102 -4069.793)" fill="#2f3d6c"/>
      <path id="Path_744" data-name="Path 744" d="M1538.373,4058.755a2.49,2.49,0,0,1-3.458-2.278,2.525,2.525,0,0,1,.063-.573A9.524,9.524,0,0,1,1538.373,4058.755Z" transform="translate(-1505.683 -4029.574)" fill="#ff78ba"/>
      <circle id="Ellipse_93" data-name="Ellipse 93" cx="2.314" cy="2.314" r="2.314" transform="translate(1.978 46.742)" fill="#f9afab"/>
    </g>
  </g>
</svg>
