<svg xmlns="http://www.w3.org/2000/svg" width="169.594" height="213.885" viewBox="0 0 169.594 213.885">
  <g id="sign_in_graphic" transform="translate(-95.203 -174.669)">
    <g id="Group_2022" data-name="Group 2022" transform="translate(39.318 108.619)">
      <g id="Background_Complete" data-name="Background Complete" transform="translate(-31.583 36.312)">
        <g id="Group_1867" data-name="Group 1867" transform="translate(107.001 29.739)">
          <g id="Group_1833" data-name="Group 1833" transform="translate(80.461 57.228)">
            <g id="Group_1827" data-name="Group 1827">
              <g id="Group_1821" data-name="Group 1821">
                <path id="Path_2590" data-name="Path 2590" d="M353.092,250.336H303.026V221.357h50.066Zm-49.76-.306h49.455V221.663H303.332Z" transform="translate(-303.026 -221.357)" fill="#f1fbff"/>
              </g>
              <g id="Group_1822" data-name="Group 1822" transform="translate(6.7 15.451)">
                <rect id="Rectangle_1048" data-name="Rectangle 1048" width="33.039" height="0.969" fill="#dcf6ff"/>
              </g>
              <g id="Group_1823" data-name="Group 1823" transform="translate(6.7 19.063)">
                <rect id="Rectangle_1049" data-name="Rectangle 1049" width="35.314" height="1.057" fill="#dcf6ff"/>
              </g>
              <g id="Group_1824" data-name="Group 1824" transform="translate(6.7 22.717)">
                <rect id="Rectangle_1050" data-name="Rectangle 1050" width="35.314" height="1.057" fill="#dcf6ff"/>
              </g>
              <g id="Group_1825" data-name="Group 1825" transform="translate(6.7 10.206)">
                <rect id="Rectangle_1051" data-name="Rectangle 1051" width="11.547" height="2.514" fill="#f0f0f0"/>
              </g>
              <g id="Group_1826" data-name="Group 1826" transform="translate(0.153 0.153)">
                <rect id="Rectangle_1052" data-name="Rectangle 1052" width="49.76" height="4.613" fill="#afe1f3"/>
              </g>
            </g>
            <g id="Group_1832" data-name="Group 1832" transform="translate(46.08 0.839)">
              <g id="Group_1829" data-name="Group 1829">
                <g id="Group_1828" data-name="Group 1828">
                  <path id="Path_2591" data-name="Path 2591" d="M453.847,227.34a15.791,15.791,0,0,1,3.094-3.234,15.836,15.836,0,0,1-3.094,3.234Z" transform="translate(-453.843 -224.102)" fill="#fff"/>
                </g>
              </g>
              <g id="Group_1831" data-name="Group 1831">
                <g id="Group_1830" data-name="Group 1830">
                  <path id="Path_2592" data-name="Path 2592" d="M456.941,227.34a15.814,15.814,0,0,1-3.094-3.234,15.834,15.834,0,0,1,3.094,3.234Z" transform="translate(-453.843 -224.102)" fill="#fff"/>
                </g>
              </g>
            </g>
          </g>
          <g id="Group_1846" data-name="Group 1846" transform="translate(19.152)">
            <g id="Group_1840" data-name="Group 1840" transform="translate(0)">
              <g id="Group_1834" data-name="Group 1834">
                <rect id="Rectangle_1053" data-name="Rectangle 1053" width="49.761" height="28.673" fill="#bcedfe"/>
              </g>
              <g id="Group_1835" data-name="Group 1835" transform="translate(6.547 15.298)">
                <rect id="Rectangle_1054" data-name="Rectangle 1054" width="33.039" height="0.969" fill="#f0f0f0"/>
              </g>
              <g id="Group_1836" data-name="Group 1836" transform="translate(6.547 18.911)">
                <rect id="Rectangle_1055" data-name="Rectangle 1055" width="35.314" height="1.057" fill="#f0f0f0"/>
              </g>
              <g id="Group_1837" data-name="Group 1837" transform="translate(6.547 22.564)">
                <rect id="Rectangle_1056" data-name="Rectangle 1056" width="35.314" height="1.057" fill="#f0f0f0"/>
              </g>
              <g id="Group_1838" data-name="Group 1838" transform="translate(6.547 10.053)">
                <rect id="Rectangle_1057" data-name="Rectangle 1057" width="11.547" height="2.514" fill="#f0f0f0"/>
              </g>
              <g id="Group_1839" data-name="Group 1839">
                <rect id="Rectangle_1058" data-name="Rectangle 1058" width="49.761" height="4.613" fill="#afe1f3"/>
              </g>
            </g>
            <g id="Group_1845" data-name="Group 1845" transform="translate(45.756 0.663)">
              <g id="Group_1842" data-name="Group 1842" transform="translate(0)">
                <g id="Group_1841" data-name="Group 1841">
                  <path id="Path_2593" data-name="Path 2593" d="M252.126,39.464a8.007,8.007,0,0,1,1.432-1.727,8.018,8.018,0,0,1,1.662-1.508,8,8,0,0,1-1.432,1.728A8.013,8.013,0,0,1,252.126,39.464Z" transform="translate(-252.122 -36.226)" fill="#fff"/>
                </g>
              </g>
              <g id="Group_1844" data-name="Group 1844">
                <g id="Group_1843" data-name="Group 1843">
                  <path id="Path_2594" data-name="Path 2594" d="M255.22,39.464a8.018,8.018,0,0,1-1.662-1.507,8,8,0,0,1-1.432-1.728,8.019,8.019,0,0,1,1.662,1.508A8,8,0,0,1,255.22,39.464Z" transform="translate(-252.122 -36.226)" fill="#fff"/>
                </g>
              </g>
            </g>
          </g>
          <g id="Group_1853" data-name="Group 1853" transform="translate(0 24.287)">
            <g id="Group_1847" data-name="Group 1847">
              <path id="Path_2595" data-name="Path 2595" d="M89.747,142.523H39.681V113.544H89.747Zm-49.76-.306H89.441V113.85H39.987Z" transform="translate(-39.681 -113.544)" fill="#f1fbff"/>
            </g>
            <g id="Group_1848" data-name="Group 1848" transform="translate(6.7 15.451)">
              <rect id="Rectangle_1059" data-name="Rectangle 1059" width="33.039" height="0.969" fill="#dcf6ff"/>
            </g>
            <g id="Group_1849" data-name="Group 1849" transform="translate(6.7 19.064)">
              <rect id="Rectangle_1060" data-name="Rectangle 1060" width="35.315" height="1.057" fill="#f0f0f0"/>
            </g>
            <g id="Group_1850" data-name="Group 1850" transform="translate(6.7 22.717)">
              <rect id="Rectangle_1061" data-name="Rectangle 1061" width="35.315" height="1.057" fill="#f0f0f0"/>
            </g>
            <g id="Group_1851" data-name="Group 1851" transform="translate(6.7 10.206)">
              <rect id="Rectangle_1062" data-name="Rectangle 1062" width="11.547" height="2.515" fill="#dcf6ff"/>
            </g>
            <g id="Group_1852" data-name="Group 1852" transform="translate(0.153 0.153)">
              <rect id="Rectangle_1063" data-name="Rectangle 1063" width="49.76" height="4.613" fill="#afe1f3"/>
            </g>
          </g>
          <g id="Group_1854" data-name="Group 1854" transform="translate(49.091 59.906)">
            <rect id="Rectangle_1064" data-name="Rectangle 1064" width="58.756" height="52.6" fill="#c8e5ef"/>
          </g>
          <g id="Group_1860" data-name="Group 1860" transform="translate(6.019 43.336)">
            <g id="Group_1855" data-name="Group 1855">
              <rect id="Rectangle_1065" data-name="Rectangle 1065" width="46.025" height="47.819" fill="#dcf6ff"/>
            </g>
            <g id="Group_1856" data-name="Group 1856">
              <rect id="Rectangle_1066" data-name="Rectangle 1066" width="46.025" height="5.21" fill="#afe1f3"/>
            </g>
            <g id="Group_1857" data-name="Group 1857" transform="translate(1.868 1.542)">
              <path id="Path_2596" data-name="Path 2596" d="M67.428,181.948a.967.967,0,1,1-.966-1.01A.989.989,0,0,1,67.428,181.948Z" transform="translate(-65.495 -180.938)" fill="#fff"/>
            </g>
            <g id="Group_1858" data-name="Group 1858" transform="translate(5.788 1.542)">
              <path id="Path_2597" data-name="Path 2597" d="M80.257,181.948a.967.967,0,1,1-.966-1.01A.989.989,0,0,1,80.257,181.948Z" transform="translate(-78.324 -180.938)" fill="#fff"/>
            </g>
            <g id="Group_1859" data-name="Group 1859" transform="translate(9.707 1.542)">
              <path id="Path_2598" data-name="Path 2598" d="M93.086,181.948a.967.967,0,1,1-.966-1.01A.989.989,0,0,1,93.086,181.948Z" transform="translate(-91.153 -180.938)" fill="#fff"/>
            </g>
          </g>
          <g id="Group_1866" data-name="Group 1866" transform="translate(65.201 10.459)">
            <g id="Group_1861" data-name="Group 1861">
              <rect id="Rectangle_1067" data-name="Rectangle 1067" width="58.756" height="58.559" fill="#dcf6ff"/>
            </g>
            <g id="Group_1862" data-name="Group 1862">
              <rect id="Rectangle_1068" data-name="Rectangle 1068" width="58.756" height="6.859" fill="#afe1f3"/>
            </g>
            <g id="Group_1863" data-name="Group 1863" transform="translate(2.459 2.029)">
              <path id="Path_2599" data-name="Path 2599" d="M263.674,76.257a1.273,1.273,0,1,1-1.273-1.33A1.3,1.3,0,0,1,263.674,76.257Z" transform="translate(-261.13 -74.927)" fill="#fff"/>
            </g>
            <g id="Group_1864" data-name="Group 1864" transform="translate(7.591 2.058)">
              <path id="Path_2600" data-name="Path 2600" d="M280.125,75.423a1.273,1.273,0,1,1-1.84-.041A1.3,1.3,0,0,1,280.125,75.423Z" transform="translate(-277.924 -75.021)" fill="#fff"/>
            </g>
            <g id="Group_1865" data-name="Group 1865" transform="translate(12.78 2.029)">
              <path id="Path_2601" data-name="Path 2601" d="M297.453,76.257a1.273,1.273,0,1,1-1.272-1.33A1.3,1.3,0,0,1,297.453,76.257Z" transform="translate(-294.909 -74.927)" fill="#fff"/>
            </g>
          </g>
        </g>
      </g>
      <g id="Padlock" transform="translate(154.681 72.977)">
        <g id="Group_1896" data-name="Group 1896" transform="translate(0 0)">
          <g id="Group_1888" data-name="Group 1888">
            <g id="Group_1887" data-name="Group 1887">
              <path id="Path_2609" data-name="Path 2609" d="M334.832,46.54l-1.926.689-.823-2.515a8.432,8.432,0,0,0-10.8-5.533A9,9,0,0,0,316,50.468l.823,2.515-1.932.691a3.072,3.072,0,0,0-1.8,3.841l5.357,16.362a2.886,2.886,0,0,0,3.683,1.909l19.943-7.134a3.088,3.088,0,0,0,1.817-3.877l-5.357-16.362A2.882,2.882,0,0,0,334.832,46.54Zm-15.2,2.628a4.932,4.932,0,0,1,2.9-6.186,4.62,4.62,0,0,1,5.916,3.034l.823,2.514-8.814,3.153Zm11.213,14.517,1.368,4.178a.336.336,0,0,1-.214.418l-1.914.684a.31.31,0,0,1-.391-.2l-1.368-4.178a3.735,3.735,0,0,1-3.373-2.617,3.928,3.928,0,0,1,2.313-4.925,3.678,3.678,0,0,1,4.713,2.411A3.992,3.992,0,0,1,330.845,63.685Z" transform="translate(-312.934 -38.702)" fill="#c93cce"/>
            </g>
          </g>
          <g id="Group_1889" data-name="Group 1889" transform="translate(3.802 8.48)">
            <path id="Path_2610" data-name="Path 2610" d="M339.2,61.4c.018.051-3.568,1.393-8.01,3s-8.058,2.867-8.077,2.816,3.568-1.393,8.011-3S339.177,61.348,339.2,61.4Z" transform="translate(-323.109 -61.397)" fill="#263238"/>
          </g>
          <g id="Group_1891" data-name="Group 1891" transform="translate(9.372 9.17)">
            <g id="Group_1890" data-name="Group 1890">
              <path id="Path_2611" data-name="Path 2611" d="M352.768,63.244a.457.457,0,0,1,.043.1l.109.293.4,1.133,1.434,4.177,2.1,6.2c.39,1.171.817,2.387,1.226,3.671a5.5,5.5,0,0,1,.28,2.051,2.728,2.728,0,0,1-.3,1.034,2.825,2.825,0,0,1-.706.832,6.655,6.655,0,0,1-1.9.968l-1.926.692-3.642,1.3-6.17,2.2-4.166,1.465-1.135.389-.3.1a.408.408,0,0,1-.1.027.455.455,0,0,1,.1-.045l.29-.115,1.123-.423,4.145-1.523,6.156-2.236,3.638-1.314,1.924-.694a6.485,6.485,0,0,0,1.841-.938,2.64,2.64,0,0,0,.658-.773,2.551,2.551,0,0,0,.281-.96,5.34,5.34,0,0,0-.271-1.978c-.4-1.272-.829-2.5-1.213-3.668-.775-2.336-1.474-4.442-2.063-6.216s-1.045-3.191-1.375-4.2l-.365-1.144-.09-.3A.412.412,0,0,1,352.768,63.244Z" transform="translate(-338.016 -63.244)" fill="#263238"/>
            </g>
          </g>
          <g id="Group_1893" data-name="Group 1893" transform="translate(5.659 3.295)">
            <g id="Group_1892" data-name="Group 1892">
              <path id="Path_2612" data-name="Path 2612" d="M336.024,48.242c-.01.016-.2-.1-.565-.248a5,5,0,0,0-1.631-.327,5.551,5.551,0,0,0-2.407.455,5.372,5.372,0,0,0-2.284,1.909,5.039,5.039,0,0,0-.878,2.837,8.721,8.721,0,0,0,.38,2.445c.2.682.4,1.223.531,1.6a4.011,4.011,0,0,1,.193.59,3.583,3.583,0,0,1-.264-.563c-.154-.368-.376-.9-.592-1.588a8.449,8.449,0,0,1-.428-2.485,5.153,5.153,0,0,1,.9-2.945,5.471,5.471,0,0,1,2.374-1.964,5.545,5.545,0,0,1,2.484-.427,4.676,4.676,0,0,1,1.654.395,3.317,3.317,0,0,1,.406.222C335.983,48.2,336.028,48.236,336.024,48.242Z" transform="translate(-328.079 -47.519)" fill="#263238"/>
            </g>
          </g>
          <g id="Group_1895" data-name="Group 1895" transform="translate(11.558 18.171)">
            <g id="Group_1894" data-name="Group 1894">
              <path id="Path_2613" data-name="Path 2613" d="M346.083,87.8a1.081,1.081,0,0,1,.189-.094,3.986,3.986,0,0,1,.577-.208,4.09,4.09,0,0,1,.971-.161,3.278,3.278,0,0,1,1.311.2,4.054,4.054,0,0,1,2.267,2.6,3.753,3.753,0,0,1,.017,2.145,4.861,4.861,0,0,1-1.222,2.02l.025-.1c.5,1.362,1.037,2.844,1.6,4.386l.034.094-.095.031L350.9,99l-1.859.623-.092.031-.03-.092c-.512-1.549-1.073-3.01-1.48-4.406l.081.064a3.731,3.731,0,0,1-2-.791,4.5,4.5,0,0,1-1.255-1.5,3.466,3.466,0,0,1-.4-1.683,3.982,3.982,0,0,1,.314-1.444,3.929,3.929,0,0,1,1.253-1.643,2.377,2.377,0,0,1,.646-.361,6.922,6.922,0,0,0-.611.406,3.989,3.989,0,0,0-1.188,1.638,3.541,3.541,0,0,0,.115,3.018,4.37,4.37,0,0,0,1.222,1.436,3.576,3.576,0,0,0,1.909.744l.063,0,.018.06c.412,1.386.976,2.841,1.492,4.4l-.123-.061,1.859-.624.854-.286-.061.125c-.559-1.544-1.1-3.027-1.589-4.39l-.02-.055.044-.044a4.71,4.71,0,0,0,1.181-1.933,3.6,3.6,0,0,0,0-2.051,3.951,3.951,0,0,0-2.159-2.544,3.237,3.237,0,0,0-1.267-.213,4.251,4.251,0,0,0-.958.132C346.351,87.689,346.09,87.816,346.083,87.8Z" transform="translate(-343.868 -87.333)" fill="#263238"/>
            </g>
          </g>
        </g>
      </g>
      <g id="Speech_Bubble" data-name="Speech Bubble" transform="translate(70.396 106.528)">
        <g id="Group_1946" data-name="Group 1946">
          <g id="Group_1942" data-name="Group 1942">
            <g id="Group_1941" data-name="Group 1941">
              <path id="Path_2640" data-name="Path 2640" d="M110.586,168.674a1.467,1.467,0,0,1-.25.028l-.733.054a8.14,8.14,0,0,0-1.181.158c-.231.046-.486.065-.747.142l-.834.231a13.748,13.748,0,0,0-3.97,1.969,14.07,14.07,0,0,0-3.906,4.348,14.841,14.841,0,0,0-1.369,3.127,15.76,15.76,0,0,0-.562,5.6c.018.33.089.658.131.991a7.017,7.017,0,0,0,.189,1,14.209,14.209,0,0,0,8.065,9.866,12.776,12.776,0,0,0,4.624,1.038,12.492,12.492,0,0,0,4.827-.7l.473-.173.062-.023.057.029,6.791,3.447-.2.172c-.725-2.25-1.428-4.432-2.1-6.526l-.026-.08.06-.06a14.5,14.5,0,0,0,3.565-5.927,14.893,14.893,0,0,0,.517-6.31,14.522,14.522,0,0,0-4.85-9.1,14.916,14.916,0,0,0-3.336-2.123,14.639,14.639,0,0,0-2.817-.888l-1.056-.18-.779-.054-.478-.037a.805.805,0,0,1-.162-.021.884.884,0,0,1,.163,0l.479.013.784.032,1.066.159a14.335,14.335,0,0,1,2.854.855,14.9,14.9,0,0,1,3.394,2.114,14.633,14.633,0,0,1,3.133,3.783,14.8,14.8,0,0,1,1.838,5.42,15.11,15.11,0,0,1-.5,6.417,14.733,14.733,0,0,1-3.617,6.047l.034-.141,2.112,6.522.107.329-.309-.157-6.792-3.443.119.006-.483.178a12.777,12.777,0,0,1-4.935.709,13.067,13.067,0,0,1-4.725-1.066,14.446,14.446,0,0,1-8.2-10.073,7.185,7.185,0,0,1-.188-1.015c-.042-.339-.113-.672-.129-1.008a15.92,15.92,0,0,1,.594-5.687,14.967,14.967,0,0,1,1.407-3.166,14.142,14.142,0,0,1,3.989-4.376,13.661,13.661,0,0,1,4.032-1.946l.845-.22c.263-.073.521-.088.754-.13a7.661,7.661,0,0,1,1.191-.131l.737-.025A1.625,1.625,0,0,1,110.586,168.674Z" transform="translate(-96.733 -168.669)" fill="#c93cce"/>
            </g>
          </g>
          <g id="Group_1945" data-name="Group 1945" transform="translate(8.528 7.562)">
            <g id="Group_1943" data-name="Group 1943">
              <path id="Path_2641" data-name="Path 2641" d="M120.969,187.728h-.995L117.8,184.7v-1.986s-1.538-.094-1.357,2.506-.015,1.939-.015,1.939-3.266.012-3.537.3a33.5,33.5,0,0,0-.32,5.209,1.9,1.9,0,0,0,1.35,1.919,1.438,1.438,0,0,0,.351.047c.815,0,4.976-.662,4.976-.662h1.718Z" transform="translate(-112.573 -182.715)" fill="#c93cce"/>
            </g>
            <g id="Group_1944" data-name="Group 1944" transform="translate(8.928 4.467)">
              <path id="Path_2642" data-name="Path 2642" d="M131.473,191.013l-.612,6.805h-1.7V191.15Z" transform="translate(-129.157 -191.013)" fill="#c93cce"/>
            </g>
          </g>
        </g>
      </g>
    </g>
    <g id="Group_75" data-name="Group 75" transform="translate(-1657.092 -315.072)">
      <path id="Path_182" data-name="Path 182" d="M1935.817,634.281l-12.3,99.482h-2.443l12.3-99.482Z" transform="translate(-46.259 -30.137)" fill="#d2dcff"/>
      <g id="Group_60" data-name="Group 60" transform="translate(1793.889 572.49)">
        <path id="Path_183" data-name="Path 183" d="M1864.826,686.261l-7.448,61.748h-2.442l7.448-61.748Z" transform="translate(-1822.021 -616.874)" fill="#d2dcff"/>
        <path id="Path_184" data-name="Path 184" d="M1819.484,686.26l-.838,6.945-6.61,54.8h-2.443l6.643-55.075.8-6.673Z" transform="translate(-1809.594 -616.874)" fill="#d2dcff"/>
        <path id="Path_185" data-name="Path 185" d="M1864.826,748.009h-2.443l-1.03-8.54-1.221-10.125-4.018-33.307-1.179-9.776h2.443l1.213,10.056,2.762,22.9,1.221,10.125Z" transform="translate(-1822.021 -616.874)" fill="#d2dcff"/>
        <path id="Path_186" data-name="Path 186" d="M1910.167,748.009h-2.443l-5.781-47.927h0l-1.667-13.821h2.443l1.7,14.088Z" transform="translate(-1834.449 -616.874)" fill="#d2dcff"/>
        <g id="Group_59" data-name="Group 59" transform="translate(7.567 28.109)">
          <rect id="Rectangle_8" data-name="Rectangle 8" width="2.443" height="37.352" fill="#d2dcff"/>
          <rect id="Rectangle_9" data-name="Rectangle 9" width="2.442" height="37.352" transform="translate(33.194)" fill="#d2dcff"/>
        </g>
        <path id="Path_187" data-name="Path 187" d="M1892.381,680.852h-33.562a1.963,1.963,0,0,1,1.963,1.963h0a1.963,1.963,0,0,1-1.963,1.964h33.563a1.964,1.964,0,0,0,1.964-1.964h0A1.963,1.963,0,0,0,1892.381,680.852Z" transform="translate(-1823.086 -615.391)" fill="#d2dcff"/>
        <path id="Path_188" data-name="Path 188" d="M1849.1,682.815h0a1.963,1.963,0,0,0-1.963-1.963h-28.978a1.963,1.963,0,0,0-1.963,1.963h0a1.963,1.963,0,0,0,1.963,1.964h28.978A1.963,1.963,0,0,0,1849.1,682.815Z" transform="translate(-1811.403 -615.391)" fill="#86a2e2"/>
        <rect id="Rectangle_10" data-name="Rectangle 10" width="45.1" height="28.109" rx="5.112" transform="translate(2.835)" fill="#d2dcff"/>
        <path id="Path_189" data-name="Path 189" d="M1821.993,686.26l-.838,6.945-2.41-.271.8-6.673Z" transform="translate(-1812.102 -616.874)" fill="#aec3ff"/>
        <path id="Path_190" data-name="Path 190" d="M1857.378,686.26l1.212,10.056-2.477-.279-1.179-9.777Z" transform="translate(-1822.021 -616.874)" fill="#aec3ff"/>
        <path id="Path_191" data-name="Path 191" d="M1904.419,700.348l-2.475-.266h0l-1.666-13.821h2.443Z" transform="translate(-1834.449 -616.874)" fill="#aec3ff"/>
        <path id="Path_192" data-name="Path 192" d="M1820.017,629.4h2.443v5.159l-2.443-.27Z" transform="translate(-1812.451 -601.289)" fill="#aec3ff"/>
        <path id="Path_193" data-name="Path 193" d="M1868.187,629.4v8.833l-2.442-.27V629.4Z" transform="translate(-1824.984 -601.289)" fill="#aec3ff"/>
      </g>
      <g id="Group_69" data-name="Group 69" transform="translate(1795.331 524.328)">
        <g id="Group_66" data-name="Group 66" transform="translate(14.641)">
          <path id="Path_194" data-name="Path 194" d="M1865.491,539.1c-2.87,4.747-11.643,11.58-24.687,7.41h0a.863.863,0,0,0-.124-.009c-3.1,0-3.32,8.63,1.9,9.129.077.253.156.494.237.719v14.035H1854.6v-5.455a8.709,8.709,0,0,0,2.329.364c4.872,0,13.341-7.516,13.535-19.356C1869.157,545.643,1865.491,542.412,1865.491,539.1Z" transform="translate(-1833.593 -528.377)" fill="#fcbeb7"/>
          <path id="Path_195" data-name="Path 195" d="M1872.048,538.445c0-7.8-6.878-14.117-17.191-14.117-8.572,0-11.517,4.73-11.517,4.73s-8.1,1.75-8.1,11.819v25.459h34.511V545.369A10.854,10.854,0,0,0,1872.048,538.445Zm-16.009,22.8a8.709,8.709,0,0,1-2.329-.364v5.455h-11.779V552.3c-.08-.225-.16-.466-.237-.719-5.223-.5-5.006-9.129-1.9-9.129a.863.863,0,0,1,.124.009h0c13.045,4.17,21.817-2.663,24.688-7.41,0,3.312,3.667,6.543,4.971,6.838C1869.381,553.729,1860.911,561.245,1856.04,561.245Z" transform="translate(-1832.705 -524.328)" fill="#311643"/>
          <path id="Path_196" data-name="Path 196" d="M1831.749,579.158l9.226-4.274,5.063.134,6.717.317,9.652,2.931v12.315h-30.657Z" transform="translate(-1831.749 -538.185)" fill="#fcbeb7"/>
          <path id="Path_197" data-name="Path 197" d="M1867.275,589.627V576.557l-9.652-2.931v-.6a26.7,26.7,0,0,1-8.111-4.377Z" transform="translate(-1836.618 -536.477)" fill="#f9afab"/>
          <circle id="Ellipse_33" data-name="Ellipse 33" cx="3.213" cy="3.213" r="3.213" transform="translate(11.5 21.13)" fill="#f49795"/>
          <path id="Path_198" data-name="Path 198" d="M1880.08,553.982a22.885,22.885,0,0,1-1.953,5.877,3.213,3.213,0,1,1,1.953-5.877Z" transform="translate(-1843.625 -532.306)" fill="#f49795"/>
          <g id="Group_61" data-name="Group 61" transform="translate(13.798 13.199)">
            <circle id="Ellipse_34" data-name="Ellipse 34" cx="3.958" cy="3.958" r="3.958" transform="translate(12.05 3.029) rotate(-22.5)" fill="none"/>
            <circle id="Ellipse_35" data-name="Ellipse 35" cx="3.958" cy="3.958" r="3.958" transform="translate(0 3.029) rotate(-22.5)" fill="none"/>
            <path id="Path_199" data-name="Path 199" d="M1868.213,544.4a4.559,4.559,0,0,0-4.528,4.067,3.5,3.5,0,0,0-3,0,4.558,4.558,0,1,0,.023.656,2.944,2.944,0,0,1,2.951.005,4.554,4.554,0,1,0,4.55-4.726Zm-12.05,8.512a3.958,3.958,0,1,1,3.958-3.958A3.963,3.963,0,0,1,1856.162,552.912Zm12.05,0a3.958,3.958,0,1,1,3.958-3.958A3.963,3.963,0,0,1,1868.213,552.912Z" transform="translate(-1850.991 -543.028)" fill="#fff"/>
          </g>
          <g id="Group_64" data-name="Group 64" transform="translate(18.518 19.523)">
            <g id="Group_62" data-name="Group 62" transform="translate(11.855)">
              <path id="Path_200" data-name="Path 200" d="M1874.24,553.736a.65.65,0,0,1-.65-.65v-1.214a.65.65,0,0,1,1.3,0v1.214A.65.65,0,0,1,1874.24,553.736Z" transform="translate(-1873.59 -551.222)" fill="#311643"/>
            </g>
            <g id="Group_63" data-name="Group 63">
              <path id="Path_201" data-name="Path 201" d="M1857.909,553.736a.65.65,0,0,1-.65-.65v-1.214a.65.65,0,1,1,1.3,0v1.214A.65.65,0,0,1,1857.909,553.736Z" transform="translate(-1857.259 -551.222)" fill="#311643"/>
            </g>
          </g>
          <g id="Group_65" data-name="Group 65" transform="translate(20.488 27.43)">
            <path id="Path_202" data-name="Path 202" d="M1863.292,564.44a3.715,3.715,0,0,1-2.428-.833,3.31,3.31,0,0,1-.865-1.071.3.3,0,0,1,.543-.245h0a3.036,3.036,0,0,0,3.251,1.524.3.3,0,0,1,.069.592A4.916,4.916,0,0,1,1863.292,564.44Z" transform="translate(-1859.973 -562.116)" fill="#311643"/>
          </g>
        </g>
        <path id="Path_203" data-name="Path 203" d="M1892.386,762.61l-10.805-4.645.554,2.678-13.293-4.175v3.809a3.807,3.807,0,0,0,1.8,3.236l1.143,3.268a.7.7,0,0,0,.664.472h0a.7.7,0,0,0,.7-.7v-2.126l9.086,2.83h9.19a2.42,2.42,0,0,0,2.419-2.42h0A2.419,2.419,0,0,0,1892.386,762.61Z" transform="translate(-1827.275 -587.955)" fill="#2f3d6c"/>
        <path id="Path_204" data-name="Path 204" d="M1924.847,762.61l-10.806-4.645.554,2.678-13.292-4.175v3.809a3.808,3.808,0,0,0,1.8,3.236l1.143,3.268a.7.7,0,0,0,1.369-.232v-2.126l9.085,2.83h9.19a2.421,2.421,0,0,0,2.42-2.42h0A2.42,2.42,0,0,0,1924.847,762.61Z" transform="translate(-1836.172 -587.955)" fill="#2f3d6c"/>
        <path id="Path_205" data-name="Path 205" d="M1868.842,749.49l.006,5.066,13.286,4.174-.554-2.678-1.1-.563.965-6Z" transform="translate(-1827.275 -586.042)" fill="#fcbeb7"/>
        <path id="Path_206" data-name="Path 206" d="M1901.3,749.49l.006,5.066,13.286,4.174-.554-2.678-1.1-.562.965-6Z" transform="translate(-1836.172 -586.042)" fill="#fcbeb7"/>
        <path id="Path_207" data-name="Path 207" d="M1855.713,650.523V651a21.647,21.647,0,0,0,21.647,21.664h10.056l1.392,49.7h12.6l9.29-59.26a10.894,10.894,0,0,0-10.762-12.581Z" transform="translate(-1823.676 -558.917)" fill="#6277d7"/>
        <path id="Path_208" data-name="Path 208" d="M1897.828,672.973l.865,5.842h-1.835Z" transform="translate(-1834.954 -565.07)" fill="#4a5ea3"/>
        <path id="Path_209" data-name="Path 209" d="M1828.463,656.287h0a14.326,14.326,0,0,0,14.274,13.111h13.633l1.391,49.7h12.6l9.192-58.635a11.435,11.435,0,0,0-11.3-13.206h-1.008l-2.892-8.645h-33.19l-2.523,13.9A14.314,14.314,0,0,0,1828.463,656.287Z" transform="translate(-1816.193 -555.652)" fill="#6277d7"/>
        <g id="Group_67" data-name="Group 67" transform="translate(0 38.046)">
          <path id="Path_210" data-name="Path 210" d="M1852.329,587.215c2.237,0,4.027-2.155,5.233-4.337H1844.8C1846.749,585.054,1849.414,587.215,1852.329,587.215Z" transform="translate(-1820.686 -578.422)" fill="#fff"/>
          <path id="Path_211" data-name="Path 211" d="M1867.2,585.864l-.884-1.374a11.412,11.412,0,0,0-6.286-4.755l-9.83-2.994a15.937,15.937,0,0,1-1.745,4.456c-1.206,2.182-3,4.337-5.233,4.337-2.914,0-5.579-2.16-7.525-4.337a27.485,27.485,0,0,1-3.208-4.433l-8.784,4.07a13.089,13.089,0,0,0-7.2,8.717l-3.915,12.513a22.155,22.155,0,0,0-1.011,6.616v1.037a4.87,4.87,0,0,0,4.869,4.869h9.365l.737,7.071h33.189l8.365-34.381Z" transform="translate(-1811.58 -576.74)" fill="#fe9ecc"/>
        </g>
        <g id="Group_68" data-name="Group 68" transform="translate(18.146 38.701)">
          <path id="Path_212" data-name="Path 212" d="M1850.4,588.883a10.884,10.884,0,0,1-5.582-1.669,19.961,19.961,0,0,1-4.358-3.637,30.258,30.258,0,0,1-3.885-5.288l.494-.229a29.442,29.442,0,0,0,3.8,5.157,19.382,19.382,0,0,0,4.236,3.534,10.342,10.342,0,0,0,5.3,1.589,6.655,6.655,0,0,0,4.408-1.633,11.108,11.108,0,0,0,2.7-3.648,20.574,20.574,0,0,0,1.7-5.418l.539.164a20.67,20.67,0,0,1-1.743,5.481,11.651,11.651,0,0,1-2.833,3.831A7.184,7.184,0,0,1,1850.4,588.883Z" transform="translate(-1836.577 -577.642)" fill="#fff"/>
        </g>
        <path id="Path_213" data-name="Path 213" d="M1927.525,663.936a6.031,6.031,0,1,1-4.418-10.135c.157,0,.313.006.467.017A10.873,10.873,0,0,1,1927.525,663.936Z" transform="translate(-1840.495 -559.815)" fill="#4a5ea3"/>
        <path id="Path_214" data-name="Path 214" d="M1894.773,662.7a6.028,6.028,0,1,1-4.355-8.822A11.434,11.434,0,0,1,1894.773,662.7Z" transform="translate(-1831.275 -559.815)" fill="#4a5ea3"/>
        <path id="Path_215" data-name="Path 215" d="M1815.959,625.566h36.417v-4.6l-35.917-4.133a4.379,4.379,0,0,0-4.88,4.35h0A4.379,4.379,0,0,0,1815.959,625.566Z" transform="translate(-1811.58 -549.675)" fill="#fcbeb7"/>
        <path id="Path_216" data-name="Path 216" d="M1907,591.251h-37.21a3.345,3.345,0,0,0-3.216,2.422l-6.433,22.41h-14.207a1.259,1.259,0,0,0-1.268,1.194,1.24,1.24,0,0,0,1.238,1.284H1901.5L1908.7,593.5A1.763,1.763,0,0,0,1907,591.251Z" transform="translate(-1820.65 -542.671)" fill="#4a5ea3"/>
        <ellipse id="Ellipse_36" data-name="Ellipse 36" cx="1.902" cy="1.303" rx="1.902" ry="1.303" transform="matrix(0.088, -0.996, 0.996, 0.088, 63.507, 64.903)" fill="#2f3d6c"/>
        <path id="Path_217" data-name="Path 217" d="M1831.7,638.614l-1.328,7.314,35.28-5.034-.763-2.28Z" transform="translate(-1816.731 -555.653)" fill="#4a5ea3"/>
        <path id="Path_218" data-name="Path 218" d="M1827.07,584.42a4,4,0,0,1-6.628,3.005,13.083,13.083,0,0,1,5.692-5.094l.268-.124A3.972,3.972,0,0,1,1827.07,584.42Z" transform="translate(-1814.009 -540.192)" fill="#ff78ba"/>
        <path id="Path_219" data-name="Path 219" d="M1885.884,587.236a4,4,0,0,1-5.531-5.49,11.421,11.421,0,0,1,4.648,4.116Z" transform="translate(-1830.263 -540.066)" fill="#ff78ba"/>
        <path id="Path_220" data-name="Path 220" d="M1861.189,609.4c-.155.538-6.913,7.816-6.913,7.816l-18.008-.908,22.2,2.555Z" transform="translate(-1818.347 -547.645)" fill="#ff78ba"/>
      </g>
      <g id="Group_70" data-name="Group 70" transform="translate(1752.295 604.144)">
        <path id="Path_221" data-name="Path 221" d="M1767.042,634.281l-3.292,26.616-9.013,72.866H1752.3l8.987-72.658,3.318-26.824Z" transform="translate(-1752.295 -634.281)" fill="#d2dcff"/>
        <path id="Path_222" data-name="Path 222" d="M1811.581,733.763h-2.443l-9.262-74.883-3.042-24.6h2.443l3.017,24.395Z" transform="translate(-1764.502 -634.281)" fill="#d2dcff"/>
        <path id="Path_223" data-name="Path 223" d="M1767.992,634.281h2.443l-3.292,26.616-2.469.208Z" transform="translate(-1755.688 -634.281)" fill="#aec3ff"/>
        <path id="Path_224" data-name="Path 224" d="M1799.276,634.281l3.017,24.395-2.418.2-3.042-24.6Z" transform="translate(-1764.502 -634.281)" fill="#aec3ff"/>
      </g>
      <g id="Group_71" data-name="Group 71" transform="translate(1907.141 604.144)">
        <path id="Path_225" data-name="Path 225" d="M1980.355,733.763h-2.443l-10.526-85.108-1.778-14.374h2.443l1.752,14.17Z" transform="translate(-1965.608 -634.281)" fill="#d2dcff"/>
        <path id="Path_226" data-name="Path 226" d="M1969.8,648.451l-2.417.2-1.778-14.374h2.443Z" transform="translate(-1965.608 -634.281)" fill="#aec3ff"/>
      </g>
      <g id="Group_72" data-name="Group 72" transform="translate(1756.78 600.218)">
        <path id="Path_227" data-name="Path 227" d="M1930.849,628.873H1806.256V632.8h124.593a1.963,1.963,0,0,0,1.963-1.963h0A1.962,1.962,0,0,0,1930.849,628.873Z" transform="translate(-1771.57 -628.873)" fill="#d2dcff"/>
        <path id="Path_228" data-name="Path 228" d="M1767.8,628.873h-7.362a1.963,1.963,0,0,0-1.963,1.963h0a1.963,1.963,0,0,0,1.963,1.963h32.723v-3.926Z" transform="translate(-1758.473 -628.873)" fill="#86a2e2"/>
      </g>
      <g id="Group_73" data-name="Group 73" transform="translate(1887.354 588.319)">
        <path id="Path_229" data-name="Path 229" d="M1964.252,622.238v-1a.561.561,0,0,0-.561-.56H1940.47a2.121,2.121,0,0,0-2.121,2.121h0V624.5h0a2.121,2.121,0,0,0,2.121,2.122h23.221a.561.561,0,0,0,.561-.56v-1a.561.561,0,0,0-.561-.56h-22.368a.853.853,0,0,1-.853-.853h0a.854.854,0,0,1,.853-.854h22.368A.56.56,0,0,0,1964.252,622.238Z" transform="translate(-1938.349 -614.727)" fill="#6277d7"/>
        <path id="Path_230" data-name="Path 230" d="M1964.049,623.6v1.707h-21.925a.853.853,0,0,1-.853-.853h0a.854.854,0,0,1,.853-.854Z" transform="translate(-1939.15 -615.528)" fill="#d2dcff"/>
        <path id="Path_231" data-name="Path 231" d="M1963.219,614.042v-1a.561.561,0,0,0-.56-.56h-19.9a2.122,2.122,0,0,0-2.122,2.122h0v1.706h0a2.122,2.122,0,0,0,2.122,2.122h19.9a.561.561,0,0,0,.56-.56v-1a.561.561,0,0,0-.56-.56h-19.05a.853.853,0,0,1-.853-.853h0a.853.853,0,0,1,.853-.853h19.05A.561.561,0,0,0,1963.219,614.042Z" transform="translate(-1938.975 -612.481)" fill="#f9a0c0"/>
        <path id="Path_232" data-name="Path 232" d="M1963.282,615.4v1.706H1944.41a.853.853,0,0,1-.853-.853h0a.853.853,0,0,1,.853-.853Z" transform="translate(-1939.776 -613.282)" fill="#ffd9e8"/>
      </g>
      <g id="Group_74" data-name="Group 74" transform="translate(1775.69 581.493)">
        <path id="Path_233" data-name="Path 233" d="M1786.046,615.722H1797a.9.9,0,0,1,.9,1.008l-.927,7.743a.9.9,0,0,1-.9.795h-9.1a.9.9,0,0,1-.9-.795l-.927-7.743A.9.9,0,0,1,1786.046,615.722Z" transform="translate(-1784.694 -606.543)" fill="#d2dcff"/>
        <path id="Path_234" data-name="Path 234" d="M1795.117,609.1v-3.521l-2.107,4v-6.5l-1.655,4.093-1.655-4.093v6.5l-2.107-4V609.1l-3.07-4.935,1.353,8.1h10.958l1.352-8.1Z" transform="translate(-1784.524 -603.077)" fill="#6277d7"/>
      </g>
      <circle id="Ellipse_37" data-name="Ellipse 37" cx="2.907" cy="2.907" r="2.907" transform="translate(1796.863 592.932)" fill="#f9afab"/>
    </g>
  </g>
</svg>
